<svg version="1.1" id="Layer_1" xmlns="http://www.w3.org/2000/svg" xmlns:xlink="http://www.w3.org/1999/xlink" x="0px" y="0px" viewBox="67.23404 619.39185 250 249.68443" style="enable-background:new 67.23404 619.39185 250 249.68443;" xml:space="preserve"><defs><style> .svg-style-0 {  fill: rgb(0, 0, 0); }</style></defs><path id="path-01_00000093137810253180102790000012914216447711280773_" d="M168.39912,852.83136
	c2.15366,0.03033,4.3073,0.06097,6.46103,0.09003c-0.47644,1.39697-0.95139,2.87323-1.35686,4.25629
	c-2.35524-0.0022-4.71024-0.00098-7.06525,0.01324C167.07211,855.73077,167.71761,854.27252,168.39912,852.83136z
	 M182.91312,853.02686c-2.30762-0.02936-4.61525-0.05872-6.92279-0.08972c-0.40405,1.40839-0.77824,2.82587-1.15678,4.23993
	c2.40112,0.00439,4.80232,0.01514,7.20335,0.02716C182.354,855.81891,182.63913,854.42413,182.91312,853.02686z
	 M175.27406,851.72845c0.63951-1.81451,1.23811-3.37671,1.61862-4.24524c-1.8656-0.03827-3.7312-0.07996-5.59657-0.12793
	c-0.85507,1.42444-1.633,2.89276-2.36504,4.38544C171.04533,851.72809,173.15965,851.72687,175.27406,851.72845z
	 M183.17433,851.75183c0.28062-1.3916,0.58463-2.77502,0.95541-4.1366c-2.1024-0.03064-4.20433-0.073-6.3065-0.11407
	c-0.55786,1.38373-1.03629,2.79651-1.46947,4.22504C178.62738,851.72998,180.9008,851.74042,183.17433,851.75183z
	 M170.34416,847.32782c-2.21454-0.05939-4.42915-0.1156-6.64328-0.19177c-0.01564-0.00946-0.02141-0.01733-0.03601-0.02679
	c-0.26759,0.97119-1.1022,2.71777-2.13699,4.71991c2.11615-0.03754,4.23253-0.06219,6.34908-0.078
	C168.88623,849.87415,169.8107,848.24371,170.34416,847.32782z M243.01855,857.617c2.24667,0.01324,4.49342,0.02844,6.7401,0.03918
	c-0.07605-1.32373-0.1265-2.73492-0.16298-4.06335c-2.15057-0.00629-4.30115-0.0199-6.4518-0.02905
	C243.11481,854.89441,243.06601,856.29108,243.01855,857.617z M257.96259,852.23755
	c-0.06799-1.59436-0.11978-3.00208-0.16833-3.93726c-2.65964-0.04425-5.31935-0.08148-7.97906-0.11719
	c0.28481,1.32782,0.50598,2.67358,0.68996,4.02795C252.99098,852.22272,255.47675,852.22998,257.96259,852.23755z
	 M243.16621,852.17029c2.13162,0.01294,4.26324,0.02686,6.39496,0.03729c-0.04327-1.92194-0.06364-3.48724-0.10439-4.02985
	c-2.15034-0.02844-4.30037-0.07074-6.4507-0.09479C243.14696,848.97968,243.18225,850.46161,243.16621,852.17029z
	 M191.65083,851.79474c0.41731-1.75354,0.77058-3.24213,0.91698-4.0769c-2.58968-0.0246-5.17912-0.05811-7.7684-0.09442
	c0.06697,0.79022-0.14362,2.32776-0.48134,4.13312C186.76254,851.76947,189.20685,851.78339,191.65083,851.79474z
	 M200.83917,754.14093c-3.59729,3.18524-7.82919,5.97949-12.69965,6.69836c1.58806,1.95349,8.64296-0.55243,11.2549-2.01068
	C201.67908,758.20044,205.46019,753.56671,200.83917,754.14093z M172.2937,758.82861
	c2.61194,1.45825,9.66684,3.96417,11.2549,2.01068c-4.87045-0.71887-9.10236-3.51312-12.69965-6.69836
	C166.22794,753.56671,170.00905,758.20044,172.2937,758.82861z M229.02428,670.38837
	c0.00972,0.00189,0.01642,0.00525,0.02629,0.00714c0.00017,0,0.00032,0,0.0004,0c0.02763,0.00348,0.05479,0.00916,0.0826,0.01105
	c0.08536-0.01135,0.17064-0.02307,0.25591-0.03442C229.26637,670.40369,229.14517,670.40057,229.02428,670.38837z
	 M208.80956,719.26208c-2.54831-0.53851-18.03313,4.73065-12.07468,7.39484c1.40834-1.04895,2.90149-1.92163,4.45078-2.63416
	c-0.80272,2.01727-0.6245,4.45148,1.39578,6.52692c3.68217,3.4859,7.76089,0.77313,9.18622-2.94244
	c-0.20561,0.07617-0.42528,0.12384-0.65742,0.12384c-1.04892,0-1.89925-0.85028-1.89925-1.89917s0.85033-1.89917,1.89925-1.89917
	c0.43973,0,0.83936,0.1554,1.16127,0.40619c-0.07556-0.92511-0.35146-1.82367-0.87102-2.62463
	c4.20758-0.07959,8.47256,0.82654,12.43039,2.68561C228.27731,722.59955,210.84792,718.07703,208.80956,719.26208z
	 M182.52234,742.17206c0.55826-0.83008,1.3477-1.74664,2.36118-1.99744c0.13194-0.03253,0.662-0.22614,0.96056-0.27319
	c0.29863,0.04706,0.82869,0.24066,0.96063,0.27319c1.01338,0.25079,1.8029,1.16736,2.36108,1.99744
	c0.29855,0.44373,0.75992,1.16449,1.40021,0.96332c1.87587-2.18628-2.26396-5.38165-4.72192-5.60162
	c-2.45798,0.21997-6.59781,3.41534-4.72194,5.60162C181.76251,743.33655,182.2238,742.61578,182.52234,742.17206z
	 M176.75418,714.89142c5.21109-3.47015-10.64287-7.3089-13.18208-7.36481c-2.46957-0.62915-16.64397,0.16705-15.26808,2.75555
	C158.20387,708.11676,167.81987,710.94812,176.75418,714.89142z M194.93394,714.89142
	c8.93433-3.9433,18.55031-6.77466,28.45016-4.60925c1.3759-2.5885-12.79849-3.3847-15.26807-2.75555
	C205.57681,707.58252,189.72285,711.42126,194.93394,714.89142z M147.85725,724.3999
	c3.95782-1.85907,8.22281-2.7652,12.43039-2.68561c-3.30458,5.09418,3.21686,14.13928,8.81905,8.83539
	c0.94081-0.96649,1.46858-2.01099,1.69742-3.05457c-0.26878,0.14563-0.57199,0.23596-0.89929,0.23596
	c-1.04898,0-1.89932-0.85028-1.89932-1.89917s0.85034-1.89917,1.89932-1.89917c0.21217,0,0.41266,0.04266,0.60318,0.10675
	c-0.00212-0.00537-0.00331-0.01135-0.00552-0.01672c0.02425,0.01105,0.04706,0.02618,0.07123,0.03729
	c0.1501,0.05682,0.2916,0.12915,0.42085,0.22009c1.37083,0.66644,2.70244,1.44092,3.95869,2.37677
	c5.95847-2.66418-9.52637-7.93335-12.07466-7.39484C160.84021,718.07703,143.41083,722.59955,147.85725,724.3999z
	 M251.12949,859.04681c0.06364,1.21729,0.10951,2.43292,0.14528,3.64105c-0.11093,0.21289-0.21414,0.34741-0.31094,0.42004
	c2.67929,0.01233,5.35866,0.01868,8.03798,0.02655c-0.27084-0.78992-0.47543-2.29395-0.634-4.08038
	C255.95509,859.0509,253.54221,859.05347,251.12949,859.04681z M258.25806,857.68524
	c-0.09586-1.32721-0.17175-2.73682-0.23459-4.08038c-2.45197-0.00317-4.90402-0.00031-7.35599-0.00726
	c0.15437,1.3512,0.27771,2.7049,0.36568,4.06299C253.44145,857.67163,255.84975,857.67798,258.25806,857.68524z
	 M265.91013,853.61212c-2.23813,0.00092-4.47635-0.00378-6.71457-0.00635c0.1152,1.35565,0.21494,2.76526,0.29825,4.08356
	c2.19714,0.00598,4.39438,0.01044,6.59146,0.01233C266.00616,856.34509,265.95181,854.92194,265.91013,853.61212z
	 M259.57654,859.05536c0.11014,1.90106,0.18021,3.44299,0.20624,4.0816c2.33353,0.00635,4.66714,0.01263,7.00067,0.0152
	c-0.28015-0.76843-0.47235-2.29742-0.60809-4.09082C263.97577,859.06165,261.77615,859.05786,259.57654,859.05536z
	 M242.96913,859.01147c-0.05962,1.71753-0.1006,3.19122-0.06767,4.05225c2.58438,0.01514,5.16878,0.03125,7.75316,0.04327
	c-0.3918-0.33325-0.64038-1.97559-0.80304-4.06555C247.55746,859.03448,245.26326,859.02094,242.96913,859.01147z
	 M298.7915,857.53143c-0.54459-1.36572-1.12204-2.71722-1.73578-4.05231c-2.12823,0.01709-4.25647,0.0354-6.3847,0.04865
	c0.4455,1.56439,0.83975,3.06335,1.12518,4.08575C294.12802,857.59332,296.45981,857.5592,298.7915,857.53143z M236.95139,858.98523
	c-0.03712,1.70178-0.07053,3.17078-0.04897,4.04309c1.67902,0.01105,3.35788,0.0199,5.03691,0.02972
	c-0.13535-0.98639-0.19606-2.43042-0.20799-4.05194C240.138,858.99884,238.54472,858.99347,236.95139,858.98523z
	 M235.7019,857.57184c0.00719-1.33789,0.03206-2.73236,0.05432-4.0412c-1.69695-0.00946-3.39389-0.01831-5.09084-0.02936
	c0.00671,1.31958-0.01247,2.71021-0.03813,4.03424C232.31876,857.54785,234.01033,857.56018,235.7019,857.57184z
	 M230.59789,858.95142c-0.03671,1.68597-0.07059,3.15027-0.05116,4.034c1.78459,0.01263,3.56926,0.02527,5.35393,0.03723
	c-0.13542-0.97723-0.1873-2.42157-0.19803-4.04279C234.00101,858.9704,232.29948,858.96185,230.59789,858.95142z
	 M236.6161,848.00494c0.23563,0.84491,0.34491,2.35492,0.38503,4.12585c1.62769,0.01172,3.25523,0.02087,4.88292,0.03131
	c0.0818-1.80536,0.17964-3.31354,0.25386-4.0921c-0.32097-0.00348-0.64195-0.01074-0.96292-0.01385
	C239.65547,848.03436,238.13571,848.02203,236.6161,848.00494z M241.82664,853.5578
	c-1.60226-0.00696-3.20454-0.01294-4.80681-0.02148c0.00632,1.32404-0.01326,2.71783-0.03917,4.0434
	c1.58365,0.01105,3.16728,0.01959,4.75092,0.02942C241.742,856.26837,241.77817,854.87231,241.82664,853.5578z M283.42133,857.66309
	c2.40997-0.01227,4.82007-0.02332,7.23004-0.0426c-0.3652-1.36163-0.72842-2.72607-1.11224-4.08386
	c-2.32269,0.01392-4.64548,0.02496-6.96829,0.03473c0.07431,0.43652,0.13211,0.81775,0.18503,0.97784
	C282.93225,855.59119,283.17261,856.62781,283.42133,857.66309z M301.93359,862.97498
	c2.40521-0.02814,4.81052-0.05023,7.21567-0.08685c-0.76047-1.22076-1.51471-2.95599-1.75641-3.35522
	c-0.10501-0.22107-0.2196-0.43994-0.32864-0.6601c-2.17624,0.02118-4.35248,0.03094-6.52869,0.04834
	C301.24472,860.71857,301.77576,862.24127,301.93359,862.97498z M298.18658,853.47064
	c0.60919,1.29401,1.22626,2.70264,1.78143,4.04626c2.12073-0.02655,4.24146-0.04614,6.36218-0.07959
	c-0.70932-1.34015-1.45905-2.67236-2.18594-4.01221C302.15839,853.44501,300.17245,853.45386,298.18658,853.47064z
	 M299.35364,858.92963c-2.38281,0.01831-4.76569,0.03857-7.14856,0.0528c0.19852,0.81958,1.24307,3.25629,0.99948,4.08636
	c2.55145-0.02026,5.10284-0.05212,7.65421-0.08087c-0.12814-0.2688-0.22653-0.55212-0.2706-0.74127
	C300.18649,861.13867,299.7771,860.03162,299.35364,858.92963z M317.23404,866.29669
	c-0.05133,0.22772-0.10779,0.42383-0.16644,0.60608c0.04254,0.76245-0.42038,1.56866-1.40897,1.60132
	c-55.36884,0.78174-110.8253,0.92499-166.17044-0.61591c-0.51024,0.33514-0.97145,0.27197-1.353-0.349
	c-0.12538-0.13708-0.19724-0.30432-0.23553-0.48163c-0.08678-0.21954-0.17017-0.46289-0.24525-0.76117
	c3.07149-6.36139,6.29633-12.84631,9.94432-18.97272c-11.92393,0.62158-24.23921,0.42719-36.16212-0.08496
	c2.32374,15.81555-14.42051,16.24066-28.07771,16.27905c-11.07795-0.1098-17.56615,0.30206-15.30298-11.58655
	c-1.84444-0.09619-3.05949-1.54083-3.70222-3.68335c-3.88108,1.96643-8.95233-2.05695-6.45551-6.1839
	c2.32863-2.98834,5.45934-5.35577,8.07262-8.15015c1.70769-3.58356,4.34679-6.10638,7.74921-5.62756
	c1.04788-2.38049,2.45805-4.10107,4.19154-4.57971c1.61712-22.38092,12.22541-45.1886,28.96579-60.19556
	c0.09057-0.0647,0.18114-0.09064,0.27171-0.11639c0.40104-4.08807,3.64822-7.4646,6.10619-8.797
	c-0.45276-2.32867-0.03877-4.76099,1.66891-7.25775c0.72446-1.39709,7.55511-8.53833,11.0222-10.00018
	c-0.53038-1.47485-1.00903-2.97559-1.43597-4.48907c-0.67274,0.38818-1.46188,0.64685-2.18634,0.72455
	c-3.45415-0.02594-8.823,2.05676-10.89288-1.07391c-17.07675-2.26392-17.49074-3.42828-20.49212-20.14282
	c-3.35117-15.05212,0.20704-19.84521,13.07921-23.99792c0.62979-2.09387,2.5513-3.65399,4.85293-4.58148
	c-0.63918-5.25464,1.58387-18.65192,2.44612-20.6875c6.62781-29.68811,36.30479-46.99506,65.61848-43.17493
	c0.00087,0,0.00142,0.00049,0.00229,0.00061c23.14859-2.4939,48.16966,6.47955,59.39503,27.89459
	c5.74675,2.20221,11.72961,3.59717,18.14658,3.37671c1.05777-0.0365,1.71268,1.2002,1.19485,2.08203
	c-3.09229,5.26685-7.30948,9.82019-12.31425,13.22278c1.45462,3.97925,1.85629,15.12427,1.51471,18.37128
	c1.33348,0.90173,2.36684,2.07275,2.79491,3.49591c12.87216,4.15271,16.43045,8.9458,13.07919,23.99792
	c-3.00137,16.71454-3.41537,17.87891-20.49211,20.14282c-2.06989,3.13068-7.43874,1.04797-10.89287,1.07391
	c-0.72447-0.0777-1.5136-0.33636-2.18634-0.72455c-0.42694,1.51349-0.90561,3.01422-1.43599,4.48907
	c3.46709,1.46185,10.29774,8.60309,11.0222,10.00018c1.70769,2.49677,2.12167,4.92908,1.66891,7.25775
	c2.45798,1.3324,5.70515,4.70892,6.10619,8.797c0.09058,0.02576,0.18114,0.0517,0.27171,0.11639
	c16.74039,15.00696,27.34866,37.81464,28.96579,60.19556c1.73349,0.47864,3.14365,2.19922,4.19153,4.57971
	c3.40244-0.47882,6.04153,2.04401,7.74921,5.62756c2.61328,2.79437,5.74402,5.1618,8.07263,8.15015
	c0.13101,0.21667,0.22977,0.43237,0.32043,0.64746C307.83124,845.72363,316.11343,864.53979,317.23404,866.29669z
	 M74.30197,838.99805c-1.43606,1.40997-2.80737,2.6261-3.20841,3.02704c-2.84606,2.01825-0.46571,5.31726,2.48395,3.90698
	c0.11639-0.03882,0.20695-0.03882,0.31047-0.03882C73.66808,843.78467,73.81036,841.3653,74.30197,838.99805z M297.38617,838.99805
	c0.49161,2.36725,0.63388,4.78662,0.41397,6.8952c0.10352,0,0.19409,0,0.31049,0.03882
	c2.94965,1.41028,5.33002-1.88873,2.48395-3.90698C300.19354,841.62415,298.82224,840.40802,297.38617,838.99805z
	 M288.71848,830.33026c1.68179,5.38177,1.86285,12.8205,0.23288,17.77527c9.27573,4.8902,6.61075-8.88763,4.08801-13.5321
	C292.31491,833.13763,290.62018,830.52435,288.71848,830.33026z M280.58112,826.06116
	c0.40103,4.10089-1.19019,9.74139-2.94958,14.39862c0.59506,9.18536,8.62891,16.49457,9.52158,2.65216
	c-0.23288-5.27838,0.45276-11.87604-2.92377-16.24884C283.54373,825.76349,281.78424,826.09985,280.58112,826.06116z
	 M269.00256,848.89471c6.07492-0.52936,7.49051-13.82953,8.96527-20.66028c0.81503-4.61853-1.86285-5.56293-3.27301-6.20978
	c-5.38394-1.4118-6.88245,9.35339-8.79709,13.7392C264.50052,839.89062,262.52121,848.49359,269.00256,848.89471z
	 M264.617,830.93823c-4.10107,3.11786-10.58247,3.35065-15.2785,4.81268c-1.74654,5.60162,8.26663,7.4646,12.22531,5.75684
	c0.19409-0.11652,0.38818-0.15521,0.56924-0.16815c0.31046-3.09198,1.39722-6.26147,2.1734-8.8877
	C264.397,831.92145,264.50052,831.41687,264.617,830.93823z M251.3437,729.43518c4.48907-0.62109,9.35338-1.15137,13.20854-3.45416
	c2.41919-6.94714,3.82935-14.5282,4.95486-21.85034c1.45532-7.69141-8.56424-11.35864-11.64322-13.89423
	c-0.02591,0.49146-0.10352,0.99597-0.28458,1.52643C256.7901,704.44116,255.28944,717.31329,251.3437,729.43518z
	 M252.71581,679.78284c-0.87599,1.22369-1.91243,2.27533-3.09004,3.1554c1.243,0.16962,2.48346,0.51233,3.61694,1.01953
	C253.03859,682.84113,252.87001,681.38367,252.71581,679.78284z M243.80287,671.19775
	c2.11694,2.74927,5.25508,4.92084,8.64604,5.59796c-0.29958-3.51813-0.59393-7.11829-1.07047-9.03864
	C248.99881,669.17163,246.46599,670.33673,243.80287,671.19775z M243.03815,688.86505
	c0.0777,0.31049-1.83702,27.78845-4.99364,40.69946c0.01295,0.10364,0.02589,0.21985,0,0.32343
	c-0.20695,1.39734,6.88245,1.42322,7.91739,1.50073c6.0416-0.12933,8.42195-34.46399,8.71947-40.85474
	C256.15619,685.4754,243.52652,682.99982,243.03815,688.86505z M120.59158,683.21997
	c2.49902-0.62567,5.16916-0.54926,7.05269,0.36542c-0.8283-3.94788-0.28481-8.34705,0.50117-12.23492
	c0.83382-4.12415,2.3006-8.12683,4.28014-11.83826c1.967-3.68811,4.49974-7.1665,7.50775-10.07605
	c2.96758-2.87054,6.80231-6.20032,11.10068-6.48328c2.85207-6.88287,9.77361-10.71295,16.58293-13.03772
	c7.75253-2.64642,16.28099-4.02869,24.47057-3.85388c8.68378,0.18542,16.79936,2.72302,24.56979,6.47571
	c8.58264,4.14484,16.92578,9.6828,25.74973,13.65045c-11.48824-18.33093-34.30353-26.04346-55.3757-23.57202
	c-0.03442-0.00079-0.05843,0.01453-0.09427,0.01135C148.35652,617.4978,121.23684,646.12964,120.59158,683.21997z
	 M230.1264,669.00293c-1.89758-3.14166-4.59692,0.6922-1.10213,1.38544c-0.0537-0.00537-0.10747-0.00867-0.16109-0.01813
	c0.06247,0.00854,0.12492,0.01703,0.18738,0.02527c0.02763,0.00378,0.05536,0.00757,0.08299,0.01105
	C229.93407,670.49719,230.79039,669.7196,230.1264,669.00293z M218.34792,668.9707c0.35098,1.08051,2.16164,1.64807,2.29823,0.18256
	C220.97676,667.52478,217.6113,666.42377,218.34792,668.9707z M210.6517,668.52222c0.41351,0.80829,1.16428,1.9118,2.20276,1.41278
	C215.02092,667.961,209.88206,664.81836,210.6517,668.52222z M200.90535,668.96252c0.63042,1.00372,1.83971,2.30725,3.09589,1.99518
	C208.532,668.99017,199.58244,662.48206,200.90535,668.96252z M197.34296,667.74524c0.0045-0.15851-0.0627-0.29498-0.06041-0.4494
	C197.30269,667.4455,197.32281,667.59552,197.34296,667.74524z M197.28618,667.39026
	c-0.15587-0.84741-0.90489-1.41547-1.25421-2.18408c-0.4695-2.39282-4.19794-1.8429-3.6006,0.68414
	C192.47195,668.59741,197.68036,671.47186,197.28618,667.39026z M185.26251,663.51422
	c-0.62062-1.10547-2.19724-3.73639-2.9431-1.32526C182.02386,670.75824,193.68921,672.73145,185.26251,663.51422z
	 M177.15247,663.7865c-3.04868-11.61768-7.82887-5.41516-2.96347,1.32526c1.3631,2.17365,4.23434,0.41943,2.89983-1.79901
	C177.11006,663.47064,177.13123,663.62854,177.15247,663.7865z M156.18721,663.30103
	c-1.60582,1.35687,0.43152,3.91394,2.03554,2.3916c1.56073-1.02417,1.84949-5.17432-0.72581-3.84985
	C156.84669,662.10559,156.54436,662.74011,156.18721,663.30103z M148.45633,660.83936
	c-1.63977,1.05115-4.64731,5.68768-1.2178,6.24329C150.29485,667.12335,153.1931,659.69537,148.45633,660.83936z
	 M142.4892,662.89832c-0.01974,0.14691-0.03949,0.29376-0.05922,0.44061c0.82695-2.03308-1.8307-3.28918-2.88184-1.51129
	c-0.35081,0.3493-0.5704,0.80981-0.88783,1.19482c0.09531-0.12347,0.19054-0.24664,0.28575-0.36987
	c-0.60918,0.98071-1.52844,1.66986-2.19746,2.58551c0.0863-0.11182,0.17268-0.22363,0.25899-0.33508
	c-1.33112,1.0451-0.47377,3.32233,1.26732,2.87543C140.32716,667.14075,142.26668,665.06628,142.4892,662.89832z
	 M120.34443,729.43518c-3.94575-12.12189-5.4464-24.99402-6.23561-37.6723c-0.18105-0.53046-0.25867-1.03497-0.28457-1.52643
	c-3.07899,2.53558-13.09848,6.20282-11.64323,13.89423c1.12551,7.32214,2.53567,14.9032,4.95486,21.85034
	C110.99106,728.28381,115.85535,728.81409,120.34443,729.43518z M133.64362,729.56451
	c-3.1566-12.91101-5.07132-40.38898-4.99362-40.69946c-0.48837-5.86523-13.11806-3.38965-11.64323,1.66888
	c0.29752,6.39075,2.67787,40.7254,8.71947,40.85474c1.03494-0.07751,8.12434-0.10339,7.91739-1.50073
	C133.61772,729.78436,133.63068,729.66815,133.64362,729.56451z M147.24034,752.70874
	c10.84114,10.12952,23.18294,22.83368,38.60373,24.34717c13.9122-1.36542,25.31837-11.83911,35.37747-21.31329
	c2.92406-2.75409,5.52013-5.85681,7.53818-9.3299c7.59512-13.07123,9.15147-28.61847,10.65823-43.91779
	c-9.52029-0.22461-18.73477-2.17712-27.91869-4.58826c-5.88013-1.5437-12.32347-2.77972-17.61218-5.91388
	c1.68526,2.62897,3.56215,5.12933,5.66559,7.46466c0.70819,0.78644,0.21967,2.03497-0.85886,2.07349
	c-16.70241,0.59857-33.09543-6.9447-43.34106-20.11981c-1.00493,5.92993-0.01665,12.15552,0.80769,18.02673
	c0.19882,1.41595-1.53317,2.3186-2.38185,1.00421c-3.5421-5.48633-6.3448-11.38361-8.38025-17.56891
	c-1.35466,4.6543-2.77397,9.2937-4.54523,13.80615c-1.99825,5.09076-4.31749,10.32013-7.65721,14.70312
	C134.89815,726.25702,137.74129,740.86853,147.24034,752.70874z M185.84407,779.34576
	c-6.42961-0.49146-12.40646-2.88489-17.99522-6.24847c0.84085,1.21619,1.60416,2.25104,2.09576,2.50989
	c4.28212,5.91211,12.05722,9.98724,15.89946,16.18408c3.84222-6.19684,11.61732-10.27197,15.89944-16.18408
	c0.49161-0.25885,1.25491-1.2937,2.09578-2.50989C198.25053,776.46088,192.27368,778.85431,185.84407,779.34576z
	 M157.21465,788.28522c10.01317,5.00659,20.20747,10.58252,28.62943,18.06006c8.42194-7.47754,18.61624-13.05347,28.62941-18.06006
	c8.87471-5.29114,50.32458-18.09869,33.05382-31.03564c-3.97165,8.20197-17.89178,15.00684-23.9592,19.2113
	c-2.1734,0.47864-14.5152,11.48798-13.77779,7.74921c11.31981-14.16589,55.29239-26.06775,25.05882-44.48993
	c-1.86293,4.68298-4.24336,9.15912-7.34818,13.33789c-5.89923,5.78278-12.41948,12.29004-19.65118,17.40009
	c-4.99371,10.32379-16.27466,16.14539-22.00571,25.96436c-5.73105-9.81897-17.01201-15.64056-22.00572-25.96436
	c-7.23169-5.11005-13.75195-11.61731-19.65118-17.40009c-3.10481-4.17877-5.48524-8.65491-7.34816-13.33789
	c-30.23358,18.42218,13.739,30.32404,25.05881,44.48993c0.73741,3.73877-11.60439-7.27057-13.77777-7.74921
	c-6.06743-4.20447-19.98756-11.00934-23.95921-19.2113C106.89008,770.18652,148.33995,782.99408,157.21465,788.28522z
	 M82.73679,848.10553c-1.62998-4.95477-1.44893-12.39349,0.23286-17.77527c-1.90169,0.19409-3.59642,2.80737-4.32088,4.24316
	C76.12604,839.2179,73.46104,852.99573,82.73679,848.10553z M86.58146,853.25775c-1.01875-0.21069-1.86378-0.70715-2.49752-1.48102
	c-1.34968,0.3266-5.28989,0.05847-4.59551,1.75641c0.5483,0.57233,1.71968,0.27795,2.42417,0.20624
	C83.44088,853.52307,85.03399,853.47443,86.58146,853.25775z M94.05659,840.45978
	c-1.75941-4.65723-3.35062-10.29773-2.94958-14.39862c-1.20312,0.0387-2.96261-0.29767-3.64822,0.80194
	c-3.37652,4.3728-2.6909,10.97046-2.92375,16.24884C85.42769,856.95435,93.46155,849.64514,94.05659,840.45978z M93.7203,828.23444
	c1.47475,6.83075,2.89043,20.13092,8.96528,20.66028c6.48133-0.40112,4.50202-9.00409,3.10481-13.13086
	c-1.91464-4.3858-3.41315-15.151-8.79709-13.7392C95.58314,822.67151,92.90527,823.61591,93.7203,828.23444z M115.0678,849.84851
	c-0.72012-0.01038-4.05503-0.08429-8.06284-0.07196c-0.75984,0.58209-1.73761,1.01697-3.02341,1.14429
	c-1.8476,0.18286-3.32906-0.28967-4.49374-0.99554c-2.22219,0.09192-4.30509,0.23499-5.94321,0.45355
	c-0.49784,0.6203-1.05309,1.20996-1.65738,1.68719c1.36475,0.02148,2.73251,0.02216,4.10477-0.00378
	c-0.41714,3.08484-1.02885,13.38037,2.21745,9.23273c0.07036-2.29523-0.36867-4.64038-0.27691-6.96527
	c-0.00459-0.75201,0.07864-1.54919,0.04406-2.31512c5.68999-0.16107,11.42064-0.4845,17.09128,0.07483
	C119.80007,852.92865,119.68376,849.43195,115.0678,849.84851z M122.34963,835.75092
	c-4.69603-1.46204-11.17744-1.69482-15.2785-4.81268c0.11646,0.47864,0.21998,0.98322,0.31055,1.51367
	c0.77618,2.62622,1.86292,5.79572,2.17339,8.8877c0.18106,0.01294,0.37514,0.05164,0.56923,0.16815
	C114.083,843.21552,124.09617,841.35254,122.34963,835.75092z M158.98053,845.04364c0.5701-0.91406,1.14911-1.81989,1.74156-2.71246
	c0.01453-0.00366,0.0255-0.00397,0.03979-0.00726c0.1636-0.15668,0.38596-0.27307,0.68909-0.29535
	c19.1118-0.44641,38.29396,0.64673,57.43356,0.42419c1.84752,0.69104,19.50258-0.91785,30.02852-0.75281
	c-1.58348-1.46912-2.67195-3.31934-2.51126-5.18597c-3.50594-3.58344-8.44785-36.08093-4.28212-30.99683
	c0.3622,2.75574,0.78912,5.49817,1.25484,8.24097c0.54341-4.01056,1.48778-8.70654,3.70003-7.8269
	c0.55627,2.75555-1.16435,5.7569-1.28082,8.57721c-0.62096,2.38031-0.14229,5.09723-0.85381,7.41284
	c0.84093,3.9845,1.78531,7.94324,2.83319,11.86316c2.61328-1.41022,5.92513-1.26776,8.70651-2.36755
	c2.57806-0.62646,6.58493-2.93671,8.95242-3.4411c3.23422-9.53467,8.73438-8.3938,10.31985-7.67242
	c2.41943,0.74426,3.8978,1.92834,4.51874,4.02417c0.28458-0.16821,0.58218-0.31049,0.85382-0.42706
	c-2.44504-21.53986-11.63028-42.20007-26.72765-57.87976c-0.62096,2.88507-2.84615,5.96405-7.76216,8.849
	c-12.94987,9.72858-28.8235,14.12701-42.69183,22.26434c-3.95869,2.09595-7.63281,4.79956-11.38448,7.30939
	c0.99608,4.15289,1.11255,13.00153,1.81111,14.25653c-0.28456,1.88873,3.02728,11.20343,2.50977,14.14014
	c0.01295,0,0.01295,0,0.02591,0c0.06467,0.01294,0.11647,0.0387,0.18114,0.06458c1.90169,0.19409,3.09193,3.81647,0.84085,4.48926
	c-3.01425,1.02191-4.82545-3.57062-2.49683-4.45038c-3.20833-8.56427-4.15269-17.95648-5.09714-27.06409
	c-1.46188,0.9314-2.94958,1.81116-4.48907,2.60028c-1.53951-0.78912-3.02721-1.66888-4.48907-2.60028
	c-0.94446,9.1076-1.88882,18.49982-5.09715,27.06409c2.32863,0.87976,0.51743,5.47229-2.49681,4.45038
	c-2.2511-0.67279-1.06084-4.29517,0.84085-4.48926c0.06467-0.02588,0.11646-0.05164,0.18114-0.06458c0.01294,0,0.01294,0,0.02589,0
	c-0.51752-2.93671,2.79434-12.2514,2.50977-14.14014c0.69856-1.255,0.81503-10.10364,1.81113-14.25653
	c-3.75166-2.50983-7.42578-5.21344-11.38448-7.30939c-13.86835-8.13733-29.74197-12.53577-42.69185-22.26434
	c-4.91601-2.88495-7.1412-5.96393-7.76215-8.849c-15.09737,15.67969-24.28263,36.3399-26.72765,57.87976
	c0.27162,0.11658,0.56923,0.25885,0.8538,0.42706c0.62095-2.09583,2.09933-3.27991,4.51884-4.02417
	c1.58545-0.72137,7.08554-1.86224,10.31977,7.67242c2.36748,0.50439,6.37434,2.81464,8.9524,3.4411
	c2.78139,1.09979,6.09324,0.95734,8.70653,2.36755c1.04788-3.91992,1.99226-7.87866,2.83318-11.86316
	c-0.71151-2.31561-0.23285-5.03253-0.8538-7.41284c-0.11647-2.82031-1.8371-5.82166-1.28082-8.57721
	c2.21224-0.87964,3.15662,3.81635,3.70002,7.8269c0.46571-2.7428,0.89265-5.48523,1.25484-8.24097
	c4.16574-5.08411-0.77618,27.41339-4.28211,30.99683c0.22875,2.65686-2.06213,5.28687-4.73069,6.81775
	c0.16629,0.56537,0.31466,1.11621,0.44178,1.65033c4.30644-1.17273,16.8315,0.28076,18.75072-0.27496
	C141.68324,845.2887,155.09961,843.62408,158.98053,845.04364z M310.89972,863.37164c-1.34357-2.883-3.13992-5.58911-4.59842-8.4314
	c-0.24408-0.26154-0.64218-1.03247-1.1116-1.992c0.12213-0.36896-0.03442-0.82281-0.45355-0.93396
	c-1.25888-2.60413-2.81821-5.80585-3.48068-4.86523c0.55826,1.65375,1.30768,3.25824,2.12839,4.84247
	c-1.95956,0.03162-3.91913,0.05084-5.87869,0.07611c-0.55273-1.09912-1.06967-2.01727-1.50372-2.63977
	c-0.19553,0.23053-0.40579,0.45166-0.63849,0.65125c0.35532,0.66455,0.71658,1.32623,1.04712,2.00275
	c-2.04611,0.02527-4.09216,0.05939-6.13818,0.07837c-0.19156-0.63806-0.38873-1.26495-0.58746-1.85437
	c-0.86099-0.60162-1.22794-1.31165-1.22794-1.31165s-0.03662,0.20526-0.17685,0.505c0.30597,0.88214,0.5903,1.77222,0.85806,2.66791
	c-2.2897,0.0199-4.5795,0.02942-6.8692,0.04205c-0.03687-0.11249-0.07751-0.21069-0.12018-0.29944
	c-0.23166-0.02905-0.45401-0.0755-0.67267-0.12952c-0.02682,0.03284-0.05283,0.05969-0.08093,0.10107
	c0.00601,0.05719,0.0199,0.1734,0.04013,0.33289c-2.54553,0.01331-5.09106,0.02655-7.63669,0.03223
	c-0.25671-1.14459-0.50458-2.28857-0.74261-3.43256c-0.13181,0.09381-0.25223,0.19836-0.3938,0.28296
	c0.11877,0.86511,0.2514,1.95068,0.39844,3.1499c-2.09073,0.00378-4.18152,0.00446-6.27231,0.00378
	c-0.06824-0.83856-0.1525-1.67554-0.26343-2.34607c-0.25842-0.04578-0.50266-0.10229-0.73038-0.17212
	c0.02393,0.63989,0.04666,1.51068,0.07526,2.51886c-2.26562-0.00159-4.53116-0.00378-6.79678-0.00983
	c-0.15012-1.55267-0.32184-2.94775-0.51309-3.92969c1.68872,0.02875,3.37772,0.04486,5.06635,0.07452
	c-0.41415-0.46808-0.70013-0.98761-0.89667-1.49677c-25.79266-0.40869-51.58937-0.4668-77.38432-0.62476
	c-1.58499,0.35944-18.83617-0.84265-21.62158,0.15228c-0.06419-0.15698-0.23672-0.16492-0.55399,0.02777
	c-0.62181,0.90491-9.84474,16.2915-8.20789,17.01221c0.07091,0.09637,0.18066,0.16614,0.3374,0.16962
	c51.59512,0.69806,103.20732,1.17749,154.80742,0.6955c0.38675-0.00439,0.60333-0.25964,0.66858-0.55334
	C310.82147,863.66132,310.86429,863.5343,310.89972,863.37164z M283.745,859.02344c0.32358,1.33759,0.63483,2.67365,0.82568,4.01404
	c-0.01382,0.03223-0.02786,0.05212-0.04178,0.08057c2.56946-0.01172,5.13885-0.02435,7.70831-0.04358
	c-0.44312-1.34424-0.83792-2.70929-1.21521-4.08356C288.59641,859.00482,286.17065,859.01398,283.745,859.02344z
	 M281.61969,853.57452c-2.50653,0.01013-5.01297,0.0177-7.5195,0.02338c0.30612,1.36505,0.60593,2.73108,0.8822,4.09869
	c2.43225-0.00476,4.86453-0.0155,7.29678-0.02686C282.00629,856.17236,281.77689,854.67712,281.61969,853.57452z
	 M267.35031,859.06232c0.1261,1.36377,0.24588,2.7276,0.2739,4.08954c2.44156,0.00189,4.88309-0.00128,7.32465-0.00446
	c-0.34665-0.81647-0.66769-2.31952-0.96063-4.0946C271.77557,859.05664,269.56293,859.06134,267.35031,859.06232z
	 M273.22726,853.6004c-2.11267,0.00446-4.22525,0.01141-6.33786,0.01263c0.07516,1.07959,0.13345,1.97784,0.2049,2.23969
	c0.03238,0.61591,0.07959,1.23206,0.13251,1.84827c2.1832,0.00128,4.36636-0.00061,6.54947-0.00378
	C273.57849,856.36249,273.3952,854.94843,273.22726,853.6004z M275.24701,859.04901
	c0.25574,1.36414,0.47635,2.72986,0.64267,4.09778c2.61499-0.00409,5.23001-0.01294,7.84503-0.02399
	c-0.41486-0.69806-0.83072-2.30255-1.19482-4.09558C280.10892,859.03607,277.67798,859.04364,275.24701,859.04901z
	 M191.57416,857.25281c2.18477,0.01233,4.36954,0.02844,6.55429,0.04297c0.10732-1.36157,0.22899-2.72162,0.36409-4.08069
	c-2.11093-0.02368-4.22171-0.04926-6.33264-0.07452C191.97316,854.51355,191.78389,855.88617,191.57416,857.25281z
	 M192.95148,847.72131c-0.22252,1.3515-0.42007,2.71246-0.60793,4.07721c2.09476,0.01202,4.18967,0.02844,6.28448,0.04236
	c0.14609-1.36096,0.30795-2.71942,0.48956-4.0744C197.06216,847.75293,195.00674,847.7403,192.95148,847.72131z
	 M167.30994,852.81622c-2.08377-0.02942-4.16771-0.05688-6.2514-0.08722c-0.78407,1.49207-1.64285,3.0744-2.43948,4.55353
	c2.16431-0.0379,4.32893-0.06,6.49356-0.07678C165.77589,855.78387,166.549,854.25897,167.30994,852.81622z M199.32423,855.57416
	c-0.08046,0.20782-0.12239,0.87329-0.15965,1.72827c2.25385,0.01514,4.50763,0.02808,6.76147,0.04456
	c0.10652-1.3515,0.22401-2.70209,0.35526-4.05261c-2.26791-0.02307-4.53575-0.04456-6.80365-0.06946
	C199.37746,854.35846,199.29352,855.29016,199.32423,855.57416z M235.77866,852.12323
	c0.02661-1.87927,0.0274-3.42279-0.07076-4.12872c-1.8213-0.01953-3.64261-0.04102-5.46408-0.05554
	c0.24637,0.82404,0.35999,2.34955,0.40199,4.14606C232.35681,852.09827,234.06766,852.1109,235.77866,852.12323z
	 M190.54625,862.70648c2.40215,0.01331,4.80437,0.03003,7.20651,0.04517c0.07887-1.35876,0.16811-2.71875,0.26727-4.0791
	c-2.22163-0.02368-4.44312-0.04865-6.66475-0.07391C191.1252,859.98016,190.86028,861.3512,190.54625,862.70648z
	 M184.06667,853.04108c-0.28032,1.37457-0.60698,2.82458-0.92297,4.16815c2.41879,0.01263,4.83752,0.02594,7.25586,0.03668
	c0.28859-1.35626,0.61746-2.77563,0.93425-4.11548C188.91145,853.10168,186.48901,853.07172,184.06667,853.04108z
	 M199.64671,847.77026c0.17007,0.75806,0.0784,2.44653-0.05228,4.07721c2.27438,0.0155,4.54869,0.02875,6.823,0.04614
	c0.13905-1.36572,0.28363-2.72668,0.43301-4.08167C204.44917,847.8006,202.04791,847.78607,199.64671,847.77026z
	 M165.96642,858.28058c-0.63191,1.46271-1.26202,2.9209-1.91092,4.35992c2.78706-0.0155,5.57431-0.01898,8.36154-0.01392
	c-0.10344-0.71667,0.22038-2.3208,0.7457-4.24933C170.76392,858.34595,168.36517,858.31311,165.96642,858.28058z
	 M164.63277,858.26257c-2.13486-0.02905-4.26987-0.05591-6.40465-0.08588c-0.03049-0.00098-0.05283-0.01263-0.08008-0.0177
	c-1.05649,1.9718-1.9388,3.66724-2.28416,4.57184c2.4882-0.04138,4.97649-0.06885,7.46501-0.08496
	C163.17627,861.93964,163.74446,860.27448,164.63277,858.26257z M181.85757,862.4494
	c-1.8765,1.17114-0.20419-3.19757-0.11465-3.95752c0.00064-0.0022,0.00104-0.00476,0.00166-0.00726
	c-2.41351-0.02966-4.82695-0.05841-7.24046-0.08936c-0.38879,1.42505-0.79419,2.84161-1.25302,4.23419
	c5.32361,0.01196,10.64722,0.04706,15.9698,0.06885c0.11307,0.00061,0.22623,0.00159,0.33929,0.0022
	c0.00655-0.95477,0.23459-2.43518,0.56503-4.11639c-2.42953-0.02808-4.85916-0.05682-7.2887-0.08655
	C182.34824,860.52057,181.93938,862.10199,181.85757,862.4494z M198.75162,862.758c2.27864,0.01483,4.55721,0.02808,6.83586,0.04419
	c0.05614-1.34674,0.13234-2.69824,0.22812-4.05322c-2.23586-0.02148-4.47171-0.0423-6.70755-0.06567
	C199.04874,860.14026,198.96457,861.75421,198.75162,862.758z M229.42508,852.07556
	c0.02676-1.91559,0.02582-3.47461-0.08093-4.14264c-2.07027-0.01611-4.14046-0.03027-6.21082-0.04199
	c0.25331,0.80444,0.36978,2.33313,0.41368,4.13849C225.50635,852.04523,227.46567,852.06036,229.42508,852.07556z
	 M229.34793,857.5257c0.00751-1.33722,0.03238-2.72852,0.05464-4.03394c-1.94496-0.01294-3.88991-0.02936-5.83496-0.04419
	c0.00751,1.31738-0.0112,2.70837-0.03679,4.03424C225.46986,857.49664,227.40891,857.51117,229.34793,857.5257z
	 M206.92871,858.76001c-0.05307,1.48541-0.14174,3.08295-0.38013,4.04944c2.55722,0.01831,5.11452,0.03729,7.67183,0.05652
	c-0.04887-0.06-0.09334-0.09723-0.14624-0.17841c0.03813-1.27948,0.08971-2.56689,0.1595-3.85614
	C211.7986,858.81055,209.36377,858.78339,206.92871,858.76001z M215.44627,858.84027
	c-0.04454,1.6424-0.14766,3.35803-0.47882,4.03143c2.48987,0.01862,4.97974,0.03601,7.4696,0.05463
	c-0.12854-0.99304-0.17766-2.42944-0.18674-4.03619C219.98233,858.87311,217.71426,858.85956,215.44627,858.84027z
	 M223.50153,858.89935c-0.03648,1.67773-0.07027,3.1366-0.05298,4.03455c2.03079,0.01514,4.06158,0.02966,6.09238,0.04425
	c-0.13211-0.98389-0.1828-2.42285-0.19283-4.03589C227.39919,858.92963,225.45044,858.91351,223.50153,858.89935z
	 M215.58382,855.34924c-0.07176,0.24194-0.08907,1.05774-0.10745,2.07098c2.25812,0.0177,4.51624,0.03442,6.77443,0.05182
	c0.00798-1.33948,0.033-2.73016,0.05519-4.0343c-2.19559-0.01703-4.39116-0.03064-6.58675-0.04987
	C215.67044,854.04449,215.62212,854.69922,215.58382,855.34924z M215.90836,848.02832
	c0.05669,1.30286-0.00198,2.62213-0.08891,3.94012c2.1696,0.0174,4.33928,0.03412,6.50897,0.05151
	c0.02669-1.93549,0.02431-3.50079-0.08899-4.13501c-4.86137-0.02625-9.72282-0.04645-14.58429-0.06915
	c0.07715,0.97437-0.07272,2.58136-0.23758,4.08569c2.48544,0.01898,4.97081,0.03918,7.45625,0.05939
	c0.18729-1.33759,0.40973-2.66699,0.69707-3.97803C215.62244,847.78955,215.90015,847.83948,215.90836,848.02832z
	 M207.13029,855.40009c-0.08623,0.24921-0.12256,1.00061-0.155,1.95508c2.45284,0.01801,4.90575,0.03729,7.35866,0.05652
	c0.09065-1.34802,0.2162-2.69128,0.37372-4.03137c-2.48204-0.02246-4.96402-0.05121-7.44598-0.07611
	C207.15042,854.31995,207.07414,855.13165,207.13029,855.40009z" class="svg-style-0"/></svg>