<?xml version="1.0" encoding="utf-8"?>
<!-- Generator: Adobe Illustrator 25.4.1, SVG Export Plug-In . SVG Version: 6.00 Build 0)  -->
<svg version="1.1" id="Layer_1" xmlns="http://www.w3.org/2000/svg" xmlns:xlink="http://www.w3.org/1999/xlink" x="0px" y="0px"
	 viewBox="67.23404 1359.26184 250 162.96559" style="enable-background:new 67.23404 1359.26184 250 162.96559;"
	 xml:space="preserve">
<style type="text/css">
	.st0{fill:#403146;}
	.st1{fill:#50516A;}
	.st2{fill:#454765;}
	.st3{fill:#F9C640;}
	.st4{fill:#FFEDC0;}
	.st5{fill:#FFC29F;}
	.st6{fill:#BB8468;}
	.st7{fill:#071328;}
	.st8{fill:#FF63C7;}
	.st9{fill:#A64081;}
	.st10{fill:#13366E;}
	.st11{fill:#EDF6FF;}
	.st12{fill:#D1E9FF;}
	.st13{fill:#055DA4;}
	.st14{fill:url(#SVGID_1_);}
	.st15{fill:#FF791A;}
	.st16{fill:#BF5B14;}
	.st17{fill:url(#SVGID_00000031169253444091040450000005844607223249902003_);}
	.st18{fill:#3257A6;}
	.st19{fill:#1E3463;}
	.st20{fill:#90012D;}
	.st21{fill:#FC2043;}
	.st22{fill:#E10D1C;}
	.st23{fill:#9C6111;}
	.st24{fill:#C57713;}
	.st25{fill:#F0C000;}
	.st26{fill:#EE991A;}
	.st27{fill:#D5D1D0;}
	.st28{fill:#B2ACAC;}
	.st29{fill:#FFFFFF;}
	.st30{fill:#029E4D;}
	.st31{fill:#016E37;}
	.st32{fill:#2D3C63;}
	.st33{fill:#3C5083;}
	.st34{fill:#E6E6E6;}
	.st35{fill:#CCCCCC;}
	.st36{fill:#4AAAD4;}
	.st37{fill:#0482BA;}
	.st38{fill:#272F40;}
	.st39{fill:#F2F1F6;}
	.st40{fill:#EB1F3D;}
	.st41{fill:#FDBF21;}
	.st42{fill:#343738;}
	.st43{fill:#FFDC37;}
	.st44{fill:#FF512C;}
	.st45{fill:#4B89E0;}
	.st46{fill:#3A4450;}
	.st47{fill:#D23D39;}
	.st48{fill:#0086BC;}
	.st49{fill:#EDB602;}
	.st50{fill:#FF2926;}
	.st51{fill:#00B3FC;}
	.st52{fill:#2290BC;}
	.st53{fill:#FAE101;}
	.st54{fill:#F2C329;}
	.st55{fill:#300C4A;}
	.st56{fill:#F2BA02;}
	.st57{fill:none;stroke:#000000;stroke-width:3;stroke-miterlimit:10;}
	.st58{fill:#D2221D;}
	.st59{fill:#FF951C;}
	.st60{fill:none;stroke:#300C4A;stroke-width:3;stroke-linecap:round;stroke-miterlimit:10;}
	.st61{fill:#FFE601;}
	.st62{fill:#BA2926;}
	.st63{opacity:0.2;fill:none;stroke:#000000;stroke-miterlimit:10;}
	.st64{fill:none;stroke:#000000;stroke-width:2;stroke-miterlimit:10;}
	.st65{fill:none;stroke:#000000;stroke-width:0.8;stroke-linecap:round;stroke-linejoin:round;stroke-miterlimit:10;}
	.st66{fill:none;stroke:#000000;stroke-width:2;stroke-linejoin:round;stroke-miterlimit:10;}
	.st67{fill:none;stroke:#000000;stroke-width:2;stroke-linecap:round;stroke-linejoin:round;stroke-miterlimit:10;}
	.st68{fill:none;stroke:#000000;stroke-width:4;stroke-miterlimit:10;}
	.st69{fill:none;stroke:#000000;stroke-miterlimit:10;}
	.st70{fill:none;stroke:#000000;stroke-linejoin:round;stroke-miterlimit:10;}
	.st71{fill:#D18617;}
</style>
<path id="path-01_00000048490084599216587320000010915688785768754846_" class="st0" d="M156.17461,1442.2323
	c0.2762-0.86316,1.23135-1.21997,1.9679-1.58813c1.99101-0.94373,4.20061-1.48474,6.39868-1.56519
	c2.95767-0.08069,6.05344,0.62146,8.20551,2.72754c0.31075,0.24158-0.01152,0.65588-0.33372,0.55237
	c-0.65598-0.21875-1.45006-0.2533-2.14055-0.36829c-3.76326-0.78259-7.84874-0.71362-11.30127,1.12781
	c-0.6675,0.34521-1.18539,0.73645-1.97948,0.62158C156.23215,1443.63623,155.97893,1442.86536,156.17461,1442.2323z
	 M214.41869,1442.37036c4.35014-0.93213,9.16064-1.49609,13.25764,0.66748c0.69055,0.34534,1.289,0.84009,2.10606,0.73657
	c0.73656-0.10364,1.12787-0.78271,0.90921-1.47302c-0.26476-0.85168-1.11636-1.21997-1.86444-1.57678
	c-2.00244-0.96667-4.21204-1.51904-6.43315-1.62256c-2.93463-0.08069-6.1685,0.54089-8.27457,2.70447
	C213.82022,1442.03662,214.07344,1442.48547,214.41869,1442.37036z M166.72781,1430.41309
	c0.702,0.36841,1.56512-0.28772,1.47304-1.04724c-0.48334-1.73767-1.35799-3.41797-1.57664-5.28235
	c-1.30046-6.00732-2.27864-12.07227-3.59062-18.07971c-0.16113-0.7251-1.20837-0.6676-1.18533,0.11511
	c0.2762,6.51379,1.38095,12.92395,2.60092,19.32251C164.77136,1427.11023,165.05908,1429.54993,166.72781,1430.41309z
	 M128.42778,1448.1936c3.08424,0.29919,6.61732,0.18408,9.7131,0.01147c0.35675,0.03455,0.63293-0.21863,0.59845-0.57544
	c-0.06905-2.64697,0.09209-5.16724-0.2877-7.79114c-1.27742-1.69177-2.93463-2.77344-4.6264-4.20056
	c-0.23018-0.18408-0.55238-0.19568-0.78256-0.02295c-1.57664,1.17383-4.39622,3.54443-4.75299,4.23499
	c-0.55238,2.50891-0.26466,5.21338-0.35675,7.79126C127.93292,1447.92883,128.14006,1448.17053,128.42778,1448.1936z
	 M117.90913,1437.60583c2.63541-0.08057,5.16727,0.09216,7.79115-0.29919c1.68025-1.27747,2.76204-2.92322,4.20059-4.61487
	c0.18411-0.2301,0.18411-0.55237,0.01152-0.79407c-1.16235-1.57678-3.53309-4.39624-4.22363-4.75305
	c-2.50883-0.55237-5.21328-0.25317-7.79115-0.35669c-0.2877,0-0.52941,0.21875-0.55245,0.50647
	c-0.29916,3.07263-0.1841,6.61731-0.02296,9.71301C117.29916,1437.36426,117.55238,1437.62891,117.90913,1437.60583z
	 M141.66245,1453.15381c-2.56635,0.13806-4.84499,1.71472-7.46895,1.80688c-8.00981,1.09326-16.14626-3.18787-20.3699-9.97803
	c-0.36828-0.57544-1.36951-0.0459-1.07027,0.57544c3.70574,7.98694,12.56724,12.84351,21.29057,11.85376
	c2.73901-0.46033,6.22609-0.69055,8.13646-2.92322C142.47957,1454.03992,142.353,1453.17676,141.66245,1453.15381z
	 M138.24449,1416.2002c-3.08426-0.2876-6.61734-0.17261-9.71312-0.01147c-0.35675-0.03455-0.63294,0.2301-0.59845,0.58691
	c0.06905,2.63538-0.09209,5.15576,0.29922,7.79114c1.27742,1.6803,2.92311,2.76221,4.61488,4.20068
	c0.23019,0.17261,0.55238,0.18408,0.78256,0.0116c1.58817-1.16235,4.39622-3.54468,4.75299-4.23523
	c0.5639-2.50891,0.26466-5.21326,0.36827-7.77966C138.73933,1416.47644,138.5322,1416.23462,138.24449,1416.2002z
	 M243.98381,1421.6897c-2.56644-6.83594,6.32962-11.62341,10.90994-6.28357
	C260.67099,1423.32385,248.09232,1431.39136,243.98381,1421.6897z M253.73154,1422.38208
	c1.39247-0.55261-1.81834-4.92566-2.17511-6.01917c-0.49486-1.18506-1.66873-1.427-2.33624-0.2301
	c-0.97818,1.70325-2.58939,3.3606-3.04968,5.23645C244.90453,1423.38318,252.60367,1422.16321,253.73154,1422.38208z
	 M267.15024,1427.34045c6.36414,7.77954-6.3757,15.89307-10.95602,6.95105
	C253.53577,1428.22644,262.47784,1422.25354,267.15024,1427.34045z M266.40225,1432.14124
	c0.67902-4.87964-6.29507-6.23779-7.57251-1.71472C256.79276,1436.19214,265.71176,1437.74561,266.40225,1432.14124z
	 M218.44662,1431.69055c5.01765-2.47437,4.03947-12.18738,5.13271-17.05542c0.40285-2.50891,0.65599-5.04089,0.88617-7.57263
	c0.12659-0.9552-1.2314-1.15088-1.46158-0.24158c-1.24286,4.45374-2.05998,9.01111-2.55484,13.6145
	c-0.29922,3.6366-0.46036,7.42285-2.80806,10.39197C217.37636,1431.35693,217.95178,1431.84009,218.44662,1431.69055z
	 M245.8136,1438.25037c8.53929-5.29395,15.47882,7.82568,5.94991,11.28967
	C245.34178,1451.45056,240.22054,1442.20923,245.8136,1438.25037z M249.15114,1443.21216
	c-0.93217,0.93225-1.84132,1.89905-2.64693,2.93469c-0.5294,0.65601,0.57542,1.427,1.10484,0.7594
	c0.73648-0.95496,1.56512-1.82959,2.42825-2.69275c0.73656,0.85168,1.5076,1.6687,2.39377,2.39355
	c0.28772,0.23047,0.74802,0.12671,0.95515-0.13794c0.23018-0.29919,0.11513-0.6676-0.16107-0.89771
	c-0.84016-0.69055-1.57664-1.46155-2.2787-2.26709c0.84015-0.80554,1.68025-1.59985,2.50882-2.4054
	c0.25322-0.24158,0.33379-0.60999,0.09209-0.89771c-0.21866-0.25305-0.702-0.34521-0.96667-0.10339
	c-0.81711,0.80554-1.65721,1.59961-2.48586,2.39355c-0.79408-0.94348-1.56512-1.89868-2.42825-2.78491
	c-0.58694-0.60999-1.63417,0.19556-1.03578,0.81702C247.51697,1441.24426,248.33409,1442.23413,249.15114,1443.21216z
	 M262.53543,1434.33923c3.09576-0.03455,3.76328-5.07507,0.34525-5.23645
	C259.38214,1428.06714,258.61108,1434.90308,262.53543,1434.33923z M148.7632,1426.79944
	c-2.63548,0.06897-5.16734-0.10352-7.79123,0.28772c-1.68025,1.27747-2.76204,2.92322-4.20059,4.62646
	c-0.18411,0.23022-0.18411,0.55237-0.01152,0.78259c1.16235,1.57654,3.53308,4.39612,4.23515,4.75281
	c2.50883,0.55237,5.20175,0.26465,7.77963,0.35681c0.2877,0,0.5294-0.21851,0.56396-0.49475
	c0.28772-3.08435,0.17259-6.62891,0.01146-9.72473C149.37311,1427.04126,149.11995,1426.76501,148.7632,1426.79944z
	 M252.77632,1421.30005c-0.72504-1.59949-1.54216-3.18787-2.42827-4.70667c-1.16235,1.46155-2.08301,3.11865-3.03824,4.72974
	C249.13962,1421.35767,250.94646,1421.17371,252.77632,1421.30005z M227.95259,1432.80701
	c1.23141-16.54932,16.2614-27.20605,32.0049-20.79578c0.78256,0.13806,1.11627-0.84021,0.59839-1.33508
	c-2.75046-2.56628-7.80267-2.92297-11.4048-2.65833c-12.65926,0.64441-22.37238,12.35999-22.06161,24.76611
	C227.07794,1433.26721,227.91803,1433.30176,227.95259,1432.80701z M239.5186,1429.49426
	c-1.2659,0.08057-2.54332,0.12634-3.8208,0.08057c-0.14961,1.71472-0.16106,3.46375,0,5.17883
	c1.20844,0.10339,3.37196,0.16101,4.49983-0.17285c0.41429-1.63403,0.13809-3.47559,0.26466-5.16724
	C240.16307,1429.47119,239.81783,1429.47119,239.5186,1429.49426z M227.43469,1467.25159
	c-5.55858,2.88855-13.10809,0.72498-15.40977-5.33997c-4.00491-11.60046,8.26303-19.13843,17.5388-12.03784
	C235.16832,1454.47705,233.78737,1463.96021,227.43469,1467.25159z M227.20459,1462.65002
	c-5.0407,2.12891-11.85365,0.26465-12.68224-5.61621c-0.6675,6.67493,8.15944,9.90881,12.94698,6.06494
	C227.67647,1462.9032,227.44629,1462.59241,227.20459,1462.65002z M225.31726,1450.02502
	c-2.64699-1.0011-5.53555-0.29919-7.58408,1.57678c-0.20714,0.18408,0.05753,0.54089,0.2877,0.37988
	c3.92441-3.01538,10.6568-1.00134,11.19766,4.22351c0.03456,0.20703,0.34532,0.17249,0.39133,0
	C230.427,1453.35107,227.71095,1450.92273,225.31726,1450.02502z M231.69283,1434.44104
	c-2.64699-6.05347,6.28355-12.00317,10.95596-6.93958C249.01297,1435.28113,236.27315,1443.39465,231.69283,1434.44104z
	 M241.57866,1431.0592c-0.02304-0.95496,0.41428-2.92285-1.09332-2.80798c-1.69177,0.2301-3.51006,0.10364-5.21335,0.2301
	c-1.18532-0.10339-0.69048,2.61243-0.82857,3.42944c0.18411,1.26611-0.54092,3.52173,1.07028,3.99365
	C240.11707,1436.16919,242.0735,1436.46838,241.57866,1431.0592z M153.95343,1436.32849
	c-0.03448,0.62134,0.87465,1.03577,1.12787,0.34509c5.68517-17.38904-14.58121-35.12366-31.00367-26.46936
	c-0.31075,0.16138-0.14961,0.65613,0.19563,0.52954C141.17912,1405.31323,155.58768,1419.37646,153.95343,1436.32849z
	 M307.96622,1487.82458c-2.88766,2.70776-6.30182,4.72192-10.19632,5.48206c-1.67148,0.49121-2.37878-2.11243-0.71701-2.60095
	c1.60489-0.47156,3.30643-1.76233,4.71237-2.64819c18.15805-12.17603,15.65887-30.99915-8.31046-28.94214
	c-3.39856,0.15955-6.7522,0.672-10.0643,1.41968c0.78046,5.13501,1.41846,10.18762,1.61871,13.96436
	c0.68558,12.92871,2.74237,41.5282-16.3725,42.70361c-19.11491,1.17529-24.47015-20.17651-26.82079-30.55847
	c-0.91104-4.0238-2.03049-7.05896-3.06149-9.27979c-39.53925,16.87317-77.40715,39.28406-120.66183,43.99585
	c-62.687,8.56299-67.58167-48.62622-13.80988-69.86646c0.16942-0.0769,0.33632-0.12476,0.50117-0.15771
	c3.16474-19.18604,8.6252-36.98169,14.87356-43.32874c9.22485-10.98047,20.27992-12.96997,33.70369-9.30566
	c12.33572,2.71106,25.00693,2.17578,37.54936,2.78271c0.01988-0.06445,0.03793-0.12866,0.06815-0.19409
	c5.67624-12.26367,14.62608-22.61035,25.77817-30.22766c23.66144-19.13782,86.7607-17.08362,79.80663,21.70227
	c-1.89175,10.67651-16.45654,22.33691-23.59787,24.58569c2.92261,6.12427,4.81458,12.88574,6.04443,19.22461
	c0.14941,0.67798,0.27542,1.36072,0.41949,2.03979c0.45114,2.00159,2.03006,9.93054,3.4039,18.38318
	c3.62534-0.78674,7.30936-1.32849,11.07559-1.51636C317.13977,1453.52454,325.2305,1472.40149,307.96622,1487.82458z
	 M193.84894,1401.58704c10.38026-0.88196,20.8342-0.26465,31.20569-1.45178c8.64001-0.98901,17.51851-4.65503,26.24458-2.50122
	c9.12456,2.31042,15.45284,8.5448,19.85594,16.24951C341.0921,1377.85571,236.45796,1324.79285,193.84894,1401.58704z
	 M237.03156,1474.17053c-0.78426-1.23108-1.31268-1.77698-1.31268-1.77698c-4.84816,3.52612-9.27782,4.66992-9.27782,4.66992
	c-6.76871,1.57788-13.11449-0.4585-17.62535-4.4187c-9.9071-0.25684-19.91081-0.16638-29.85156-0.6825
	c-7.56041,7.25928-20.13354,7.15283-27.25902,0.36609c-5.38895,7.5116-7.11015,16.87988-10.39354,25.37866
	c-3.06816,7.94116-8.2149,16.0564-16.81897,18.66907c-7.06253,2.14465-14.45941-0.23792-18.22929-6.76672
	c-5.39548-8.57886-5.38488-31.39417-2.21816-53.48242c-2.07172,0.98474-4.12516,2.00708-6.12987,3.12244
	c-19.70415,9.15051-39.60471,35.88208-16.80274,52.93433c23.81962,13.71411,53.73545,2.86743,78.22491-4.13318
	C185.92854,1498.38745,210.73317,1484.58081,237.03156,1474.17053z M239.55302,1473.16687
	c13.57999-5.06372,26.81465-12.12988,40.91246-15.61682c-1.20844-7.67627-2.85413-15.29468-4.66095-22.84436
	c-3.18781-15.32922-11.85367-34.16833-29.73772-34.95105c-4.29268-0.08044-8.50473,0.9552-12.6823,1.80676
	c-13.08505,2.61243-26.5844,2.18677-39.86516,1.8645c-9.44836,0.03455-18.90831,0.42566-28.34523-0.27612
	c-9.17218-0.24182-18.01062-4.2467-27.20584-3.17639c-17.28566,3.04968-24.35184,21.79688-27.45913,37.04553
	c-0.95515,4.20056-2.14055,9.67859-3.22234,15.81262c-0.11505,0.58691-0.21866,1.17383-0.3222,1.77234
	c-3.36051,19.61035-5.51257,44.9519,3.34892,55.89624c4.97165,5.61609,13.20019,4.776,18.93135,0.80566
	c6.52525-4.49976,9.48293-12.50977,11.75012-19.77148c2.29016-7.36548,4.29262-14.92639,8.91902-21.22156
	c-1.97948-2.6239-3.29146-5.94983-3.52158-9.96619c-0.11513-4.84509,0.78256-10.9906,4.72995-14.22449
	c0.85161-0.55249,1.6917,0.43738,1.17381,1.23145c-7.77963,7.18115-4.44223,19.76001,3.86688,25.09985
	c16.77921,9.45996,34.47916-11.07117,22.49893-26.42322c-0.34525-0.42603,0.32219-0.87463,0.67896-0.495
	c5.12126,5.36304,6.87056,13.3728,3.90137,20.28943c-0.79408,1.81824-1.8298,3.40637-3.00368,4.78735
	c6.30659-0.69031,20.4044-0.4718,21.49771-0.60986c1.51912,0.09204,3.06128,0.01135,4.59184,0.02295
	c-5.30536-6.66333-6.29507-16.5144,1.19691-24.50134c0.35677-0.37976,0.98972,0.10352,0.64447,0.5293
	c-16.06577,22.48755,21.09488,42.90344,30.11751,15.95068c1.25444-3.86682,0.95522-8.3551-1.38103-11.75
	c-0.702-1.05872-1.6917-1.85291-2.38225-2.91174c-0.54086-0.84009,0.43733-1.70325,1.23141-1.17383
	c2.57787,1.7262,3.70573,5.66211,4.26964,8.55078c1.30046,5.42053,0.04601,11.16321-3.1188,15.51331
	c0.72504,0.81726,1.45007,2.01404,2.0715,3.16479C239.17329,1473.31653,239.35739,1473.23584,239.55302,1473.16687z
	 M281.38614,1464.14429c-0.12656-1.01282-0.2532-2.02539-0.3913-3.03833c-8.14798,2.12915-16.03122,5.60474-23.66132,8.87305
	c-5.6161,2.03711-11.18614,4.2583-16.72168,6.59436c0.01144,0.03455,0.01144,0.06897,0.02296,0.10352
	c0,0,3.23387,6.34119,4.9026,14.27051c1.66873,7.9408,8.55074,22.7981,20.92227,23.63831c0.01154,0.01147,0.01154,0,0.02304,0
	c3.07275,0.21875,6.01889-0.64441,8.4357-2.54346C287.56616,1501.50061,281.38614,1464.14429,281.38614,1464.14429z
	 M209.74628,1429.63062c-1.16237-0.46045-2.34776-0.32227-3.5791-0.28772c-4.35022,0.12646-8.68892,0.08057-13.03906,0.10339
	c-1.35799,0.27637-20.1282-0.85156-16.67567,1.66882c5.42041,1.02429,11.08261,0.36816,16.58359,0.58691
	c4.25813,0.02307,8.50475-0.01147,12.75134,0.09204c1.31198,0.03455,2.65845,0.24158,3.90137-0.24158
	C210.49428,1431.2417,210.60941,1429.96423,209.74628,1429.63062z M271.56943,1438.26196
	c-0.89761,1.91028-1.49606,3.97034-2.63538,5.7771c-0.86316,1.48462-1.92191,2.87708-3.13034,4.12
	c-5.10974,5.13281-15.53636,7.48047-22.71761,4.79895c-0.2877-0.14954-0.58693-0.29907-0.86313-0.4718
	c-0.33371-0.25317-0.748,0.2533-0.41428,0.51794c0.48332,0.35669,1.00122,0.67896,1.53064,0.97815
	c7.73361,2.91174,17.2856,1.34656,23.87996-4.38477c2.81958-3.04956,5.27081-6.7207,6.20297-10.77173
	C273.56046,1437.698,272.09885,1437.28357,271.56943,1438.26196z M174.81819,1461.90015
	c-2.31314,6.06494-9.8512,8.21704-15.42123,5.33984c-6.35268-3.30286-7.72217-12.77429-2.11758-17.38916
	c3.27994-2.71594,7.99837-3.38354,12.03783-1.94495C174.84123,1449.8623,176.77463,1456.75586,174.81819,1461.90015z
	 M168.67281,1462.8916c-4.52287,2.46277-9.5519-0.2876-11.14021-4.94861c-0.12643-0.32227-0.62135-0.20703-0.52934,0.14941
	c0.92073,3.8324,4.49983,7.14697,8.59676,6.698c1.08186-0.11487,2.80814-0.47168,3.34898-1.54224
	C169.05254,1463.04114,168.88002,1462.85706,168.67281,1462.8916z M171.42334,1455.18103
	c0.34531-5.32849-8.49323-7.18152-11.7155-3.76318c-0.21872,0.2301,0.11493,0.54077,0.34517,0.34497
	c2.70445-2.08276,6.88202-1.27722,9.33331,0.84009c0.77112,0.72522,1.35791,1.68042,1.89891,2.58936
	C171.31966,1455.24988,171.41182,1455.24988,171.42334,1455.18103z M205.62624,1439.43567
	c-2.87711,0.47192-6.12248-0.26465-8.74637,1.1969c-1.13939,0.7251-1.25444,2.79663-0.08057,3.56763
	c1.57664,1.16235,3.65967,0.88611,5.51251,0.95532c1.58817-0.10376,3.36043,0.26465,4.86803-0.28772
	C210.29865,1443.48669,208.9637,1439.0675,205.62624,1439.43567z M190.04387,1440.70154
	c-1.40407-1.07019-3.26842-0.87463-4.93715-1.0011c-1.80684,0.02295-3.68265-0.55249-5.44347-0.0575
	c-3.45251,1.71472-1.47311,6.0304,2.12903,5.47791c2.68149-0.11511,5.77725,0.60999,8.17102-0.86304
	C191.06807,1443.4751,191.25224,1441.5188,190.04387,1440.70154z"/>
</svg>
